PathFileType	4	(X/Y/Z)	SUBJ32_2_walk_RCNL2025.trc
DataRate	CameraRate	NumFrames	NumMarkers	Units	OrigDataRate	OrigDataStartFrame	OrigNumFrames
100	100	7	25	mm	100	54	428
Frame#	Time	R_Shoulder			L_Shoulder			C7			J_Notch			R_Elbow			L_Elbow			R_Wrist			L_Wrist			R_Asis			L_Asis			Sacral			Thoracic			Sternum			R_Thigh_Lateral			R_Knee_Lateral			R_Shank_Lateral			R_Ankle_Lateral			R_Heel			R_Toe			L_Thigh_Lateral			L_Knee_Lateral			L_Shank_Lateral			L_Ankle_Lateral			L_Heel			L_Toe		
		X1	Y1	Z1	X2	Y2	Z2	X3	Y3	Z3	X4	Y4	Z4	X5	Y5	Z5	X6	Y6	Z6	X7	Y7	Z7	X8	Y8	Z8	X9	Y9	Z9	X10	Y10	Z10	X11	Y11	Z11	X12	Y12	Z12	X13	Y13	Z13	X14	Y14	Z14	X15	Y15	Z15	X16	Y16	Z16	X17	Y17	Z17	X18	Y18	Z18	X19	Y19	Z19	X20	Y20	Z20	X21	Y21	Z21	X22	Y22	Z22	X23	Y23	Z23	X24	Y24	Z24	X25	Y25	Z25
54	0.53000000	-1469.689575	1363.341064	28.037603	-1505.701538	1372.411865	-349.224152	-1527.890137	1439.420166	-146.185989	-1397.828613	1345.776489	-163.847305	-1550.861816	1030.591675	114.897926	-1621.709473	1071.493164	-440.463715	-1510.727600	782.881500	121.476532	-1604.311157	813.904510	-475.705032	-1420.471924	908.713135	-58.608406	-1434.543091	902.532288	-306.139740	-1625.707397	953.545288	-167.968613	-1618.537354	1212.160889	-155.292297	-1326.854370	1116.741333	-178.123856	-1506.512329	541.991943	9.251719	-1506.652100	446.284576	-37.711205	-1518.224487	283.770813	22.268930	-1550.163818	66.272934	-94.612823	-1605.348755	57.298809	-144.677673	-1420.946533	50.202927	-132.358139	-1453.373047	572.104614	-426.918030	-1433.912598	480.711487	-391.725189	-1561.290527	305.657623	-402.541382	-1694.319458	179.776611	-299.835541	-1736.411865	204.743179	-249.821640	-1597.679077	85.826424	-277.571930
55	0.54000000	-1459.541870	1363.489258	27.822168	-1496.147339	1371.865356	-349.472992	-1517.953003	1439.135986	-146.485641	-1387.835938	1345.696899	-164.182678	-1538.682983	1030.501465	115.349663	-1614.022949	1071.119873	-438.968536	-1496.617371	783.216156	122.027763	-1599.075928	813.308014	-473.378326	-1410.554077	908.464966	-58.307796	-1424.192139	902.741516	-306.017242	-1616.066406	953.470154	-168.586166	-1608.588135	1212.038574	-155.238647	-1316.960815	1116.489746	-178.030151	-1501.732056	542.017639	9.042276	-1503.232178	446.163544	-38.111195	-1516.348633	283.736511	21.960855	-1549.804199	65.959961	-95.193115	-1605.206909	57.386272	-145.127502	-1420.954468	50.250259	-132.296112	-1437.221558	573.402588	-426.812958	-1415.765625	482.580627	-391.345062	-1538.366821	303.627197	-402.718109	-1666.641113	172.479401	-300.577881	-1709.540527	194.817032	-249.731567	-1565.191895	83.607681	-280.823120
56	0.55000000	-1449.433594	1363.462769	27.552929	-1486.552856	1371.149292	-349.781799	-1508.000854	1438.699585	-146.832230	-1377.836304	1345.442993	-164.563522	-1526.536987	1030.266968	115.740776	-1606.214966	1070.571167	-437.513489	-1482.530579	783.424286	122.536961	-1593.647522	812.548828	-471.019974	-1400.746094	908.024292	-58.106445	-1413.924561	902.755371	-305.952728	-1606.456421	953.244995	-169.230957	-1598.655396	1211.762939	-155.248550	-1307.088013	1116.055786	-177.983490	-1496.893921	541.985657	8.832942	-1499.731934	446.003235	-38.516521	-1514.440796	283.679779	21.647518	-1549.484985	65.716354	-95.717133	-1605.071289	57.543766	-145.542511	-1420.954590	50.240963	-132.269943	-1421.432739	574.509460	-426.635559	-1398.098999	484.308167	-390.833313	-1515.428467	301.237915	-402.859924	-1638.228271	164.455627	-301.371857	-1681.781982	184.049957	-249.726868	-1532.181763	81.088158	-284.128723
57	0.56000000	-1439.353149	1363.260986	27.230295	-1476.911011	1370.272095	-350.149719	-1498.023315	1438.114014	-147.222946	-1367.819946	1345.017822	-164.990295	-1514.426025	1029.890137	116.067558	-1598.277222	1069.855713	-436.103882	-1468.480530	783.504578	122.996819	-1588.008850	811.633484	-468.636826	-1391.115356	907.375183	-58.013252	-1403.729004	902.569458	-305.945404	-1596.864136	952.874634	-169.904190	-1588.726562	1211.337891	-155.323212	-1297.226196	1115.441528	-177.983765	-1491.977051	541.885071	8.621113	-1496.134644	445.798401	-38.924889	-1512.486938	283.592285	21.333033	-1549.218384	65.562386	-96.167458	-1604.940552	57.781612	-145.915344	-1420.944702	50.173958	-132.278336	-1405.993774	575.409424	-426.395538	-1380.945312	485.855011	-390.197144	-1492.485474	298.524841	-402.969116	-1609.063477	155.826263	-302.221924	-1653.120728	172.584167	-249.830780	-1498.678955	78.346497	-287.469269
58	0.57000000	-1429.287720	1362.885498	26.854015	-1467.215454	1369.243530	-350.576172	-1488.011108	1437.382812	-147.656158	-1357.777344	1344.425415	-165.464294	-1502.352417	1029.374512	116.326607	-1590.203735	1068.983032	-434.745239	-1454.481201	783.456757	123.400524	-1582.143372	810.570099	-466.236542	-1381.681885	906.515442	-58.026821	-1393.592529	902.181580	-305.994537	-1587.276611	952.365112	-170.608139	-1578.789062	1210.768921	-155.463974	-1287.365967	1114.649902	-178.030640	-1486.962524	541.707275	8.403869	-1492.425171	445.545685	-39.335354	-1510.450806	283.469330	21.023380	-1549.011475	65.510719	-96.534416	-1604.812012	58.099133	-146.247543	-1420.922974	50.057053	-132.313950	-1390.895508	576.091248	-426.103790	-1364.338501	487.182068	-389.443817	-1469.543457	295.529236	-403.049652	-1579.125854	146.735428	-303.130920	-1623.535645	160.593994	-250.060196	-1464.715088	75.461548	-290.814758
59	0.58000000	-1419.223511	1362.340210	26.423134	-1457.460571	1368.074463	-351.061066	-1477.955444	1436.510986	-148.131302	-1347.699585	1343.671753	-165.987534	-1490.318359	1028.725220	116.514778	-1581.989990	1067.963257	-433.443237	-1440.547241	783.281616	123.741886	-1576.035828	809.367676	-463.827652	-1372.422363	905.455811	-58.137199	-1383.500244	901.591797	-306.099487	-1577.679932	951.723572	-171.345993	-1568.830566	1210.062500	-155.672363	-1277.498047	1113.685913	-178.123581	-1481.834717	541.447388	8.178701	-1488.591187	445.244049	-39.748169	-1508.290039	283.310394	20.724840	-1548.864868	65.567101	-96.816803	-1604.681763	58.488781	-146.548218	-1420.888184	49.905987	-132.365082	-1376.138062	576.545959	-425.771515	-1348.313599	488.250824	-388.580841	-1446.606934	292.298981	-403.107880	-1548.396118	137.351227	-304.102081	-1593.004883	148.286301	-250.426743	-1430.321289	72.511627	-294.123047
60	0.59000000	-1409.146118	1361.631226	25.935976	-1447.641113	1366.776489	-351.604614	-1467.848022	1435.504150	-148.648987	-1337.578003	1342.764038	-166.562759	-1478.326050	1027.949097	116.629196	-1573.633057	1066.807251	-432.203552	-1426.693970	782.980927	124.015450	-1569.672180	808.036224	-461.419464	-1363.281860	904.217651	-58.329350	-1373.435791	900.802673	-306.259552	-1568.060303	950.958008	-172.121582	-1558.838867	1209.226685	-155.950226	-1267.613281	1112.556396	-178.262070	-1476.583984	541.105713	7.943660	-1484.624390	444.895325	-40.164639	-1505.973755	283.119751	20.442408	-1548.772217	65.729591	-97.023476	-1604.544922	58.941730	-146.831619	-1420.838623	49.740894	-132.418930	-1361.734375	576.764648	-425.409332	-1332.906372	489.024170	-387.615875	-1423.686279	288.888214	-403.153198	-1516.863770	127.862694	-305.140991	-1561.519043	135.893860	-250.937866	-1395.528076	69.573425	-297.341370
